<svg width="1080" height="608" xmlns:xlink="http://www.w3.org/1999/xlink" xmlns="http://www.w3.org/2000/svg">
  <defs>
    <linearGradient id="a">
      <stop style="stop-color:#ff8f07;stop-opacity:1" offset="0"/>
      <stop style="stop-color:#f52900;stop-opacity:1" offset="1"/>
    </linearGradient>
    <linearGradient xlink:href="#a" id="b" x1="549.15" y1="-21.819" x2="528.309" y2="483.948" gradientUnits="userSpaceOnUse" gradientTransform="matrix(.74547 0 0 .74547 156.678 123.332)"/>
  </defs>
  <g style="display:inline">
    <path style="color:#000;-inkscape-font-specification:'Evangelion, Normal';display:inline;fill:#000;stroke-linejoin:bevel;-inkscape-stroke:none;paint-order:markers stroke fill" d="m100.81 122.475-5.52 2.302-2.913 4.92.637 5.946 13.297 14.343-21.356-5.058-5.17 1.886-3.264 4.403-.302 5.494 18.885 32.441H66l-5 5v10.37l5 5c4.305 0 7 2.77 7 5.271v31.574l-11.436.897-2.662 1.023-2.582 1.99-1.67 2.317-12.171 34.94.654 4.55 2.832 3.963 4.094 2.094L61 298.084v9.637l5 5h132c8.942 0 17-6.496 17-15.367v-.063l2.072-.01-.072.072v10.367l5 5h101.807l19.51 80.432.34.961.513 1.086.52.861 16.097 21.463-5.32 41.93.013 1.351.23 1.577.372 1.29 9.518 21.626 2.505 2.537 3.618 1.644 3.562.221 10.62-3.318 2.189-1.387 2.023-2.201 1.201-2.305 12.922-58.46.117-1.016.016-1.21-.09-1.011-20.472-106.07h11.33l55.605 135.654.35.693.476.787.45.627 34.16 40.64 1.05.942 1.383.924 1.27.61 13.185 4.167 5.051-1.24 3.738-3.754 1.217-5.056-4.414-13.746 103.32-69.198 1.952-5.761-1.852-5.454-5.057-3.382-33.207 2.142 152.778-23.232 2.023-.785 2.104-1.405 1.504-1.572 16.257-26.908-.08-5.3-2.91-4.503-4.799-2.25-213.853 25.791-2.84 1.336-2.58 2.445-1.484 2.764-5.625 32.02 1.347 4.359 3.385 3.463 4.328 1.45 44.824-6.817-.2.072-51.442 24.055-1.526 1.103-1.51 1.606-1.007 1.586-3.973 10.046-18.137 2.72.784-8.85-.008-.971-.123-1.152-.2-.96-34.271-109.706H522l1.531-1.532 1.73 1.846 2.653 1.604 2.598.72 170.34-.386 4.084-2.131 2.798-3.994.608-4.567-10.865-30.113-1.66-2.27-2.557-1.96-2.627-1.016L671 267.279v-52.486c0-2.5 2.695-5.272 7-5.272l5-5v-10.369l-5-5h-48l-5 5v10.37l5 5c4.305 0 7 2.77 7 5.271v43.371l-38.678-66.525-4.322-2.487h-60l-5 5v10.37l5 5c4.305 0 7 2.77 7 5.271V256.4l-33.717-2.822-4.578 2.213-2.894 4.35-.274 5.078 3.383 6.494h-10.871l-4.322 2.486-10.555 18.155H450.22l-4.864-15.567-.568-1.215-.86-1.336-.872-1.023-.057-.05v-58.37c0-2.5 2.695-5.272 7-5.272l5-5v-10.369l-5-5h-72l-5 5v10.37l5 5c4.305 0 7 2.77 7 5.271v9.576l-3.771.486-3.53 2.196-8.584 12.947-.808 2.27-.07.714-14.965-12.822H366l5-5v-31.008l-5-5H222l-5 5v7.73l-3.053-2.523c-1.908-4.83-6.35-8.364-11.652-9.636l-71.121-58.82-.932-.608-1.174-.594-1.037-.389zm4.159 11.355 1.988.5-.596 1.004zm19.42 12.178 52.168 43.144h-4.149l-28.58-22.175zm-37.164 9.734.5.117-.243.327zm12.142 9.006 6.654 1.576 29.122 22.828h-21.57ZM690 189.152l-5 5v10.37l5 5h4.195L745 253.183v26.318l-2.53 11.51a7.91 7.91 0 0 1-4.47 1.342l-5 5v10.367l4.754 4.754-.299 1.359.3 3.074 1.405 3.213 2.057 2.313 70.447 41.246 3.662.554 3.998-.933 3.04-2.12 19.456-29.556.815-3.057-.219-3.57-1.18-2.932L803 277.068v-23.88l50.9-43.667h4.1l5-5v-10.369l-5-5h-60l-5 5v10.37l1.55 1.55-20.544 17.59-20.52-17.627 1.514-1.514v-10.369l-5-5zm180 0-5 5v10.37l5 5c4.305 0 7 2.77 7 5.271v72.287c0 2.5-2.696 5.274-7 5.274l-5 5v10.367l5 5h48l5-5v-10.367l-5-5c-4.304 0-7-2.774-7-5.274V243.71l38.678 66.525 4.322 2.487h1.695l-22.412 11.658-.797.516-.89.705-.696.668-24.828 29.007-61.95 40.534-33.98 7.675-.308.08-.365.108-.303.1-96.186 35.091-1.228.655-1.326.964-.996.963-18.862 24.108-.761 4.789 1.728 4.754 3.658 3.181 15.668 3.334 1.42.096 1.672-.127 1.387-.308 127.92-48.262.42-.18.486-.236.396-.217 114.37-68.945.359-.239.416-.302.338-.27 76.033-66.06 1.158-6.079-2.672-5.144-5.638-2.549-21.926 5.422v-73.418c0-2.5 2.695-5.271 7-5.271l5-5v-10.37l-5-5h-48l-5 5v10.37l5 5c4.305 0 7 2.77 7 5.271v43.371l-38.678-66.525-4.322-2.487Zm-799 10h29.965l.17.248.572.707.525.555L121 217.7v24.9l-38 2.983v-30.789c0-7.125-5.274-12.631-12-14.516zm53.318 0H147.9l.471.37H126l-.607.607zm60.979 0h3.351L205 212.676v1.763zm41.703 0h134v21.008h-22.074l-10.555-18.152-4.322-2.487H282l-5 5v41.28l5 5h43v.271h-43l-5 5v41.282l5 5h39.291l.09.367H227v-1.123c2.902-.814 5.424-2.406 7.479-4.407l4.093-.021 4.662-3.258.873-2.35 4.461-1.228 3.364-3.09 5.664-15.35.119-3.093-.23-.817 13.533-7.025 2.668-3.91.525-4.945-1.785-4.381L239 220.078v-5.285c0-7.125-5.274-12.631-12-14.516zm156 0h62v1.125c-6.726 1.885-12 7.391-12 14.516v49.434l-38-33.956v-15.478c0-7.125-5.274-12.631-12-14.516zm156 0h52.123l37.549 64.584-32.018-2.68-22.332-38.41L565 225.16v33.248l-14-1.172v-42.443c0-7.125-5.274-12.631-12-14.516zm96 0h38v1.125c-6.726 1.885-12 7.391-12 14.516v51.648l-14-1.171v-50.477c0-7.125-5.274-12.631-12-14.516zm60 0h50v.37h-.951l-3.258 8.792 29.951 25.729 6.51.006 30.049-25.729-3.252-8.798H803v-.37h50v.37h-.951l-3.256 1.205-54.049 46.367-1.744 3.795V265.3l-2.164-2.547-2.17-1.484-2.857-.993-2.623-.18L755 265.75v-14.861l-1.74-3.793-53.951-46.367-3.26-1.208H695Zm180 0h52.123l46.555 80.075 9.322-2.514v-61.92c0-7.125-5.274-12.631-12-14.516v-1.125h38v1.125c-6.726 1.885-12 7.391-12 14.516v76.443l-22.08 11.485h-18.043l-46.555-80.075L901 225.16v61.92c0 7.125 5.273 12.633 12 14.518v1.123h-38v-1.123c6.727-1.885 12-7.393 12-14.518v-72.287c0-7.125-5.274-12.631-12-14.516zm-739.258 10.37h25.385l7.873 6.171v12.975l-11.336.754zm151.258 0h34.172l10.555 18.152 4.322 2.486h1.767l-.02.016-5.919 12.502L330 240.8h-43zm-72 11.425 14 11.578v.536l-14-10.862zm-36 2.584 5.47 4.29-.968-.116-4.502.299Zm-48 3.246 15.248 13.842L131 241.816Zm108 14.018.479.396-.479-.37Zm-49.541 1.853L205 255.205v2.12l-14.574-12.69-1.436-.475zM575 243.71l9.494 16.33-9.494-.795Zm-190 1.22v.958l-.242-.592zm-37.246 1.526 8.396 7.195 3.487 18.063h-23.588l-.354.203zM395 251.682l35.775 31.966L433 290.77v6.584l2.992 2.992.742 2.375h-28.437L395 270.28Zm-209.559 1.873L205 270.582v10.795l-26 .135V254.06ZM169 254.845v26.717l-38 .196v-23.932zm-48 3.766v23.2l-38 .195v-20.412zm252.729 1.873 11.128 27.149c-.3 1.943-2.129 3.813-5.035 4.424zm-86.729.588h36.166l-6.652 14.05-.455 1.63-.204 1.98.116 1.688 2.894 11.934H287ZM73 262.38v19.678l-11.729.06 6.739-19.348zm447.389 8.314L541 272.418v14.662c0 2.5-2.696 5.274-7 5.274l-1.533 1.533L527 283.389v-6.676l-5-5h-1.08zM551 273.256l14 1.172v12.652c0 5.215 2.86 9.525 7.012 12.22l-28.098.065c4.198-2.691 7.086-7.035 7.086-12.285Zm24 2.008 19.283 1.613 12.992 22.344-20.275.047v-1.914l-5-5c-4.304 0-7-2.774-7-5.274zm206.715 1.408 11.767 13.848c1.093 4.26 4.188 7.579 8.166 9.61l2.202 2.59h-47.61l4.815-21.904zm-175.272 1.223L661 282.46V299.1l-42.172.095zM215 279.287l2.328 2.027-2.328.012zm123.926 2.426H361v21.008h-23.193l-3.266-13.465zm156 0h13.201L517 298.752v3.969h-63.541l-.115-.367h26.705l4.322-2.487zM671 283.299l13.197 1.103 5.28 14.633-18.477.041zm352.195 11.209-2.285 1.984-.652-1.258zM205 297.344v.01c0 2.649-2.694 5.367-7 5.367H71v-1.123c2.481-.696 4.631-2.018 6.525-3.598l43.895-.227 4.58 4.58h36c4.735 0 9.18-1.842 12.354-4.853zm184.215.918 1.826 4.459H383v-1.123c2.345-.657 4.385-1.884 6.215-3.336zM367.3 311.42l20.994 108.773-11.336 51.29-5.375-12.217 5.447-42.942-.129-1.912-.574-2.164-.832-1.717-17.05-22.736-18.214-75.074H366Zm443.969.031 13.927 16.393-12.004 18.234-56.97-33.357H810Zm-398.875 1.27h27.462l35.288 112.957-1.538 17.377 1.555 4.084 3.414 3.21 4.168 1.303 32.711-4.904 2.371-1.033 2.33-1.854 1.537-2.074 4.496-11.371 47.204-22.072 5.054-.326-83.666 56.033-1.94 2.511-1.179 3.391-.033 2.838-26.584-31.625zm577.894 0h2.85l-43.043 37.398-88.813 53.537 54.483-35.646.564-.43.633-.557.496-.502 24.562-28.695zm-252.512 24.066h.006l-.002.004zm-666.795.559-4.81 3.166-2.059 5.224 1.36 5.596 35.677 31.219 1.51.908 1.934.738 1.732.328 56.865.578.676-.039.807-.101.678-.133 31.785-8.574 19.676 11.392L207.836 398l-1.162 2.506-.488 3.13.345 2.743 13.655 31.785 19.18 44.69 2.56 2.595 3.701 1.647 3.644.164 13.477-4.588 2.379-1.72 2.016-2.67 1.003-2.755 4.47-86.763 54.964 1.402 4.727-3.037 2.173-5.102-1.082-5.513-29.982-29.676-1.543-1.041-2.004-.862-1.816-.404zm655.373 6.826-5.857 9.691-188.541 28.674 2.678-15.244zm-650.052 3.347 1.248.041-.307.782zm16.472 6.489 201.64 6.38 13.442 13.305-42.609-1.086-3.525 1.33-3.053 2.829-1.596 3.41-4.592 89.129-1.363.463-15.86-36.956v1.026l-.405-1.973-11.678-27.19L235.2 390.81l1.154-4.102-.76-4.533-2.425-3.5-30.908-17.895-1.854-.63-2.271-.3-1.955.13-33.926 9.152-52.817-.54zm229.38 25.447.591.584-.832-.021zm278.03 21.182-2.074 1.388-.418-1.228zm248.792 10.44-12.034 7.253-125.048 47.18-.88-.188 9.58-12.244 93.563-34.135z"/>
    <path style="color:#000;display:inline;fill:#f4f4f4;stroke-width:10;stroke-linejoin:bevel;-inkscape-stroke:none;paint-order:markers stroke fill" d="m99.592 127.324-2.912 4.92 39.552 42.666.358.328 114.222 88.623 3.202.291 14.699-7.63.525-4.946-141.252-116.82-1.173-.594zm8.29 8.233 16.823 4.224L261.97 253.303l-9.01 4.677-112.52-87.304zm-24.08 14.236-3.263 4.402 24.482 42.059.573.707 47.213 42.86 2.2.767 28.06-1.865 4.537 3.666-125.649 9.86-2.582 1.99-12.172 34.939 2.832 3.963 188.514-.971 1.943-5.23-29.086-25.32 31.164 25.18 4.672-1.286 5.664-15.35-.957-3.379-140.54-110.172-1.153-.554zm5.386 7.406 19.054 4.512 138.315 108.428-3.471 9.41-57.18-46.2-2.072-.656-27.957 1.86-45.934-41.698zm297.152 72.04-4.473.575-8.584 12.948-.275 2.777 82.365 200.94.477.787 34.16 40.64 1.383.924 13.185 4.168 3.738-3.754-5.566-17.334 106.45-71.293-1.852-5.453-36.164 2.334-1.07.275-51.442 24.055-1.51 1.606-5.033 12.724-27.266 4.088 1.342-15.176-.123-1.152-45.498-145.64-.86-1.337zm-39.389 2.091-4.635.986-21.283 44.946-.203 1.98 27.346 112.733.513 1.086 17.313 23.082-5.574 43.939.23 1.576 9.518 21.625 3.617 1.645 10.62-3.319 2.023-2.2 12.921-58.462.016-1.209-32.984-170.9-.989-1.7zm37.983 4.65 50.203 44.86 45.076 144.293-1.625 18.363 3.414 3.211 32.71-4.904 2.331-1.854 5.228-13.22 49.858-23.315 24.543-1.584-99.108 66.375-1.18 3.39 4.491 13.977-6.857-2.168-33.303-39.619-81.588-199.045zm-38.899 2.418 14.694 12.592L393.4 420.262l-12.416 56.172-6.425 2.007-8.11-18.43 5.621-44.316-.574-2.164-17.668-23.558-26.953-111.112Zm-158.892 10.008 43.466 37.84-176.386.908 10.14-29.113zm319.724 10.155-2.894 4.35 23.875 45.845 2.652 1.603 170.34-.386 2.799-3.994-10.866-30.114-2.556-1.96zm4.895 6.394 176.05 14.732 8.778 24.333-164.29.373zm272.406.045-30.379 6.092-2.324 2.283-9.127 41.531 1.404 3.213 70.447 41.246 3.999-.933 19.457-29.557-.22-3.57-50.4-59.313zm-.549 6.191 47.815 56.272-16.672 25.326-66.135-38.72 8.244-37.512zm246.508 16.452-28.979 7.166-.66.248-64.898 33.757-.89.706-25.294 29.548-63.302 41.418-34.86 7.875-.365.108-96.186 35.092-1.326.964-18.861 24.108 1.728 4.754 15.668 3.334 1.672-.127 127.92-48.262.486-.236 114.37-68.946.416-.302 76.033-66.06zm-10.582 8.76-66.496 57.775-113.914 68.67-126.848 47.857-10.142-2.158 15.394-19.676 95.205-34.734 35.2-7.953.976-.413 64.107-41.945.633-.556 25.194-29.432 64.072-33.326zm-278.25 34.923L527.44 357.117l-2.58 2.445-5.625 32.02 3.385 3.463 203.223-30.904 2.103-1.405 16.258-26.908zm-5.356 6.653-12.373 20.476-197.738 30.072 4.524-25.754zm-665.115 4.365-2.058 5.224 35.677 31.22 1.934.737 56.865.579.807-.102 33.793-9.115 26.713 15.465-12.942 14.923-.488 3.131 13.654 31.785 19.18 44.69 3.701 1.646 13.477-4.588 2.015-2.67 4.721-91.628 59.834 1.527 2.174-5.102-29.983-29.675-2.003-.862zm8.14 6.224 217.571 6.885 23.805 23.56-55.219-1.408-3.053 2.829-4.767 92.511-8.951 3.047-18.09-42.152v-.002l-12.916-30.068 14.08-16.237-.76-4.533-30.908-17.895-2.272-.298-34.591 9.33-55.354-.565z"/>
    <path style="color:#000;-inkscape-font-specification:'Evangelion, Normal';display:inline;fill:#fff;stroke-width:10;stroke-linejoin:bevel;-inkscape-stroke:none;paint-order:markers stroke fill" d="M66 194.152v10.37c6.624 0 12 4.607 12 10.271v72.287c0 5.664-5.376 10.274-12 10.274v10.367h132c6.624 0 12-4.607 12-10.367V204.52c0-5.76-5.376-10.369-12-10.369zm156 0v10.37c6.624 0 12 4.607 12 10.271v72.287c0 5.664-5.376 10.274-12 10.274v10.367h144v-31.008h-29.951l-12 20.64H282v-41.28h48V245.8h-48v-41.28h42.049l12 20.64H366v-31.009zm156 0v10.37c6.624 0 12 4.607 12 10.271v72.287c0 5.664-5.376 10.274-12 10.274v10.367h144v-31.008h-29.951l-12 20.64H438v-82.56c0-5.664 5.376-10.272 12-10.272v-10.369zm156 0v10.37c6.624 0 12 4.607 12 10.271v72.287c0 5.664-5.376 10.274-12 10.274v10.367h48v-10.367c-6.624 0-12-4.61-12-10.274v-61.92l48 82.56h48v-92.927c0-5.664 5.376-10.272 12-10.272v-10.369h-48v10.37c6.624 0 12 4.607 12 10.271v61.92l-48-82.56zm156 0v10.37h6.049L750 250.888v36.191c0 5.664-5.376 10.274-12 10.274v10.367h72v-10.367c-6.624 0-12-4.61-12-10.274V250.89l54.049-46.368H858v-10.369h-60v10.37h6.049L774 230.25l-29.951-25.729H750v-10.369zm180 0v10.37c6.624 0 12 4.607 12 10.271v72.287c0 5.664-5.376 10.274-12 10.274v10.367h48v-10.367c-6.624 0-12-4.61-12-10.274v-61.92l48 82.56h48v-92.927c0-5.664 5.376-10.272 12-10.272v-10.369h-48v10.37c6.624 0 12 4.607 12 10.271v61.92l-48-82.56zm-744 10.37h36c6.624 0 12 4.607 12 10.271v72.287c0 5.664-5.376 10.274-12 10.274h-36z"/>
    <path style="color:#000;display:inline;fill:url(#b);stroke-width:5.96379;stroke-linejoin:bevel;-inkscape-stroke:none;paint-order:markers stroke fill" d="m98.866 130.217 39.553 42.666 114.22 88.623 14.7-7.632-141.253-116.82zm-15.75 22.478 24.482 42.058 47.213 42.86 29.221-1.944 60.411 48.812 5.664-15.349-140.54-110.171zm301.237 78.767-8.585 12.947 82.364 200.938 34.16 40.64 13.185 4.168-6.252-19.472 108.314-72.543-36.164 2.334-51.44 24.056-5.665 14.323-32.711 4.905 1.676-18.95-45.498-145.642zm-39.341 2.131-21.284 44.946 27.346 112.733 18.037 24.048-5.724 45.137 9.517 21.625 10.62-3.318 12.921-58.46-32.985-170.9zm-156.857 11.742L62.188 255.22l-12.17 34.938 188.514-.97zm318.463 16.198 23.875 45.845 170.34-.387-10.864-30.115zm278.136 6.39-30.378 6.092-9.126 41.532 70.447 41.244 19.457-29.555zm246.089 22.614-28.978 7.166-64.9 33.756-25.57 29.872-64.108 41.945-35.385 7.995-96.187 35.091-18.86 24.108 15.667 3.333 127.92-48.262 114.368-68.944zm-289.19 43.75-213.855 25.79-5.625 32.02 203.223-30.904zM70.73 345.322l35.676 31.22 56.866.579 34.99-9.437 30.909 17.895-15.305 17.65 13.653 31.785 19.18 44.69 13.476-4.588 4.87-94.53 62.738 1.6-29.982-29.677z"/>
  </g>
</svg>
